/* XPM */
static char * collectable_xpm[] = {
"70 70 4 1",
" 	c #87CEEB",
".	c #f9de08", /* JAUNE */
"X	c #1d1e19", /* NOIR */
"+  c #f3bf11", /* ORANGE */
"                                                                      ",
"                                                                      ",
"                                                                      ",
"                                                                      ",
"                                                                      ",
"                                                                      ",
"                                                                      ",
"                                                                      ",
"                                                                      ",
"                                                                      ",
"                                                                      ",
"                                 XXXXXX                               ",
"                                 XXXXXX                               ",
"                                 XXXXXX                               ",
"                                 XXXXXX                               ",
"                                 XXXXXX                               ",
"                           XXXXXX......XXXXXX                         ",
"                           XXXXXX......XXXXXX                         ",
"                           XXXXXX......XXXXXX                         ",
"                           XXXXXX......XXXXXX                         ",
"                           XXXXXX......XXXXXX                         ",
"                           XXXXXX......XXXXXX                         ",
"                     XXXXXX..................XXXXXX                   ",
"                     XXXXXX..................XXXXXX                   ",
"                     XXXXXX..................XXXXXX                   ",
"  XXXXXXXXXXXXXXXXXXXXXXXXX..................XXXXXXXXXXXXXXXXXXXXXXX  ",
"  XXXXXXXXXXXXXXXXXXXXXXXXX..................XXXXXXXXXXXXXXXXXXXXXXX  ",
"  XXXXXXXXXXXXXXXXXXXXXXXXX..................XXXXXXXXXXXXXXXXXXXXXXX  ",
"  XXXXXX......................................................XXXXXX  ",
"  XXXXXX......................................................XXXXXX  ",
"  XXXXXX......................................................XXXXXX  ",
"        XXXXX+++++.........XXXXXX......XXXXXX.......+++++XXXXX        ",
"        XXXXX+++++.........XXXXXX......XXXXXX.......+++++XXXXX        ",
"        XXXXX+++++.........XXXXXX......XXXXXX.......+++++XXXXX        ",
"             XXXXX+++++....XXXXXX......XXXXXX...++++XXXXX             ",
"             XXXXX+++++....XXXXXX......XXXXXX...++++XXXXX             ",
"             XXXXX+++++....XXXXXX......XXXXXX...++++XXXXX             ",
"                  XXXX.....XXXXXX......XXXXXX...XXXX                  ",
"                  XXXX.....XXXXXX......XXXXXX...XXXX                  ",
"                  XXXX.....XXXXXX......XXXXXX...XXXX                  ",
"                  XXXX.....XXXXXX......XXXXXX...XXXX                  ",
"                  XXXX.....XXXXXX......XXXXXX...XXXX                  ",
"                  XXXX.....XXXXXX......XXXXXX...XXXX                  ",
"                  XXXX..........................XXXX                  ",
"                  XXXX..........................XXXX                  ",
"                  XXXX..........................XXXX                  ",
"             XXXXX+++++.........................++++XXXXX             ",
"             XXXXX+++++.........................++++XXXXX             ",
"             XXXXX+++++.........................++++XXXXX             ",
"             XXXXX+++++.........................++++XXXXX             ",
"             XXXXX+++++.........................++++XXXXX             ",
"        XXXXX+++++..................................+++++XXXXX        ",
"        XXXXX+++++........+++++++XXXXXX++++++.......+++++XXXXX        ",
"        XXXXX+++++........+++++++XXXXXX++++++.......+++++XXXXX        ",
"        XXXXX+++++........+++++++XXXXXX++++++.......+++++XXXXX        ",
"        XXXXX+++++........+++++++XXXXXX++++++.......+++++XXXXX        ",
"        XXXXX+++++++++++++XXXXXXX      XXXXXX++++++++++++XXXXX        ",
"        XXXXX+++++++++++++XXXXXXX      XXXXXX++++++++++++XXXXX        ",
"        XXXXX+++++++++++++XXXXXXX      XXXXXX++++++++++++XXXXX        ",
"        XXXXX+++++++++++++XXXXXXX      XXXXXX++++++++++++XXXXX        ",
"  XXXXXX++++++++++++XXXXXX                   XXXXXX+++++++++++XXXXXX  ",
"  XXXXXX++++++++++++XXXXXX                   XXXXXX+++++++++++XXXXXX  ",
"  XXXXXX++++++++++++XXXXXX                   XXXXXX+++++++++++XXXXXX  ",
"  XXXXXX++++++++++++XXXXXX                   XXXXXX+++++++++++XXXXXX  ",
"  XXXXXXXXXXXXXXXXXX                               XXXXXXXXXXXXXXXXX  ",
"  XXXXXXXXXXXXXXXXXX                               XXXXXXXXXXXXXXXXX  ",
"  XXXXXXXXXXXXXXXXXX                               XXXXXXXXXXXXXXXXX  ",
"                                                                      ",
"                                                                      ",
"                                                                      "};