/* XPM */
static char * empty_xpm[] = {
"70 70 3 1",
" 	c None",
".	c #87CEEB",
"+	c #FFFFFF",
"......................................................................",
"......................................................................",
"......................................................................",
"......................................................................",
"......................................................................",
"............................................................+.........",
"............................................................+.........",
"............................................................+.........",
".....................................................++++++++++.......",
".....................................................++++++++++.......",
".....................................................++++++++++.......",
".....................................................++++++++++.......",
".....................................................++++++++++.......",
".....................................................++++++++++.......",
".....................................................++++++++++.......",
".....................................................++++++++++.......",
".....................................................++++++++++.......",
".....................................................++++++++++.......",
".....................................................++++++++++.......",
".....................................................++++++++++.......",
".....................................................++++++++++.......",
".....................................................++++++++++.......",
".....................................................++++++++++.......",
".....................................................++++++++++.......",
".....................................................++++++++++.......",
".....................................................++++++++++.......",
".....................................................++++++++++.......",
".....................................................++++++++++.......",
".....................................................++++++++++.......",
".....................................................++++++++++.......",
".....................................................++++++++++.......",
".....................................................++++++++++.......",
".....................................................++++++++++.......",
".....................................................++++++++++.......",
".....................................................++++++++++.......",
".....................................................++++++++++.......",
"......................................................................",
"......................................................................",
"......................................................................",
"......................................................................",
"......................................................................",
"......................................................................",
"......................................................................",
"......................................................................",
"......................................................................",
"......................................................................",
"......................................................................",
"......................................................................",
"......................................................................",
"......................................................................",
"......................................................................",
"......................................................................",
"......................................................................",
"......................................................................",
"......................................................................",
"......................................................................",
"......................................................................",
"......................................................................",
"......................................................................",
"......................................................................",
"......................................................................",
"......................................................................",
"......................................................................",
"......................................................................",
"......................................................................",
"......................................................................",
"......................................................................",
"......................................................................",
"......................................................................",
"......................................................................",
"......................................................................",
"......................................................................"};