/* XPM */
static char * exit_xpm[] = {
"70 70 4 1",
" 	c #87CEEB",
"1  c #000000",
".	c #46fe3a", /* Green color for the pipe */
"X	c #056f00", /* Darker green for the pipe details */
"                                                                      ",
"                                                                      ",
"                                                                      ",
"                                                                      ",
"                                                                      ",
"                                                                      ",
"                                                                      ",
"                                                                      ",
"                                                                      ",
"                                                                      ",
"                                                                      ",
"                                                                      ",
"                                                                      ",
"                                                                      ",
"                                                                      ",
"                                                                      ",
"                                                                      ",
"                                                                      ",
"                                                                      ",
"                                                                      ",
"                                                                      ",
"                  11111111111111111111111111111111111                 ",
"                  11111111111111111111111111111111111                 ",
"                  11...............................11                 ",
"                  11...............................11                 ",
"                  11XXXXXX.....XXXXXXXXXXXXXXXXXXXX11                 ",
"                  11XXXXXX.....XXXXXXXXXXXXXXXXXXXX11                 ",
"                  11...XXX.....XX...XXXXXXX.X....XX11                 ",
"                  11...XXX.....XX...XXXXXXXX.X...XX11                 ",
"                  11...XXX.....XX...XXXXXXX.X....XX11                 ",
"                  11...XXX.....XX...XXXXXXXX.X...XX11                 ",
"                  11...XXX.....XX...XXXXXXX.X....XX11                 ",
"                  11...XXX.....XX...XXXXXXXX.X...XX11                 ",
"                  11...XXX.....XX...XXXXXXX.X....XX11                 ",
"                  11...XXX.....XX...XXXXXXXX.X...XX11                 ",
"                  11...XXX.....XX...XXXXXXX.X....XX11                 ",
"                  11111111111111111111111111111111111                 ",
"                  11111111111111111111111111111111111                 ",
"                    1111111111111111111111111111111                   ",
"                    1111111111111111111111111111111                   ",
"                     11...XXX.....XXXXXX.X....XXX1                    ",
"                     11...XXX.....XXXXXXX.X...XXX1                    ",
"                     11...XXX.....XXXXXX.X....XXX1                    ",
"                     11...XXX.....XXXXXXX.X...XXX1                    ",
"                     11...XXX.....XXXXXX.X....XXX1                    ",
"                     11...XXX.....XXXXXXX.X...XXX1                    ",
"                     11...XXX.....XXXXXX.X....XXX1                    ",
"                     11...XXX.....XXXXXXX.X...XXX1                    ",
"                     11...XXX.....XXXXXX.X....XXX1                    ",
"                     11...XXX.....XXXXXXX.X...XXX1                    ",
"                     11...XXX.....XXXXXX.X....XXX1                    ",
"                     11...XXX.....XXXXXXX.X...XXX1                    ",
"                     11...XXX.....XXXXXX.X....XXX1                    ",
"                     11...XXX.....XXXXXXX.X...XXX1                    ",
"                     11...XXX.....XXXXXX.X....XXX1                    ",
"                     11...XXX.....XXXXXXX.X...XXX1                    ",
"                     11...XXX.....XXXXXX.X....XXX1                    ",
"                     11...XXX.....XXXXXXX.X...XXX1                    ",
"                     11...XXX.....XXXXXX.X....XXX1                    ",
"                     11...XXX.....XXXXXXX.X...XXX1                    ",
"                     11...XXX.....XXXXXX.X....XXX1                    ",
"                     11...XXX.....XXXXXXX.X...XXX1                    ",
"                     11...XXX.....XXXXXX.X....XXX1                    ",
"                     11...XXX.....XXXXXXX.X...XXX1                    ",
"                     11...XXX.....XXXXXX.X....XXX1                    ",
"                     11...XXX.....XXXXXXX.X...XXX1                    ",
"                     11...XXX.....XXXXXX.X....XXX1                    ",
"                     11...XXX.....XXXXXXX.X...XXX1                    ",
"                     11...XXX.....XXXXXX.X....XXX1                    ",
"                     11...XXX.....XXXXXXX.X...XXX1                    ",
"                     11...XXX.....XXXXXX.X....XXX1                    ",
"                     11...XXX.....XXXXXXX.X...XXX1                    ",
};
