/* XPM */
static char * player_xpm[] = {
"70 70 4 1",
" 	c #87CEEB",
".	c #FF0000", /* Red color for Mario's cap and shirt */
"X	c #0000FF", /* Blue color for Mario's overalls */
"o	c #FFD700", /* Yellow color for buttons */
"                                                                      ",
"                                                                      ",
"                                                                      ",
"                                                                      ",
"                                                                      ",
"                                                                      ",
"                                 ....                                 ",
"                                ......                                ",
"                                .......                               ",
"                                .......                               ",
"                                .......                               ",
"                                 .....                                ",
"                                  ...                                 ",
"                                 .....                                ",
"                                .......                               ",
"                               .........                              ",
"                              ..........                              ",
"                            ............                              ",
"                          ..............                              ",
"                         ...............                              ",
"                         ...............                              ",
"                         ...............                              ",
"                         ...............                              ",
"                          .............                               ",
"                           ...........                                ",
"                            .........                                 ",
"                             .......                                  ",
"                             .......                                  ",
"                             .......                                  ",
"                             .......                                  ",
"                             .......                                  ",
"                             .......                                  ",
"                             .......                                  ",
"                         XXXXX.XXXXX                                  ",
"                        XXXXXX.XXXXXX                                 ",
"                        XXXXXX.XXXXXX                                 ",
"                         XXXXX.XXXXX                                  ",
"                             ...oo...                                 ",
"                            ....oo....                                ",
"                            ....oo....                                ",
"                            ....oo....                                ",
"                            ....oo....                                ",
"                            ....oo....                                ",
"                            ....oo....                                ",
"                            ....oo....                                ",
"                            ....oo....                                ",
"                            ....oo....                                ",
"                            ....oo....                                ",
"                            ....oo....                                ",
"                            ....oo....                                ",
"                            ....oo....                                ",
"                            ....oo....                                ",
"                            ....oo....                                ",
"                            ....oo....                                ",
"                            ....oo....                                ",
"                            ....oo....                                ",
"                            ....oo....                                ",
"                            ....oo....                                ",
"                                                                      ",
"                                                                      ",
"                                                                      ",
"                                                                      ",
"                                                                      ",
"                                                                      ",
"                                                                      ",
"                                                                      ",
"                                                                      ",
"                                                                      ",
"                                                                      ",
"                                                                      "};