/* XPM */
static char * wall_xpm[] = {
"70 70 6 1",
" 	c #87CEEB",
".	c #a35c37",
"+	c #322416",
"-  c #f39762",
"*  c #63341d",
"/  c #f2e4c5",
"     ------------------------------/       ------------------------/  ",
"    -------------------------------//     -------------------------// ",
"   --------------------------------///   --------------------------///",
"***................................---+++***.......................---",
"***................................---+++***.......................---",
"***................................---+++***.......................---",
"***................................---+++***.......................---",
"***................................---+++***.......................---",
"***................................---+++***.......................---",
"***................................---+++***.......................---",
"***................................---+++***.......................---",
"***................................---+++***.......................---",
"***................................---+++***.......................---",
"***................................---+++***.......................---",
"***................................---+++***.......................---",
"***................................---+++***.......................---",
"***................................---+++***.......................---",
"***................................---+++***.......................---",
"**************************************+++*****************************",
" ************************************+++++*************************** ",
"  **********************************+++++++*************************  ",
"   ++++++++++++++++++++++++++++++++++++++++++++++++++++++++++++++++   ",
"   ++++++++++++++++++++++++++++++++++++++++++++++++++++++++++++++++   ",
"   ++++++++++++++++++++++++++++++++++++++++++++++++++++++++++++++++   ",
"  -----------/+++++++----------------------/+++++++----------------/  ",
" ------------//+++++-----------------------//+++++-----------------// ",
"-------------///+++------------------------///+++------------------///",
"***..........---+++........................---+++..................---",
"***..........---+++........................---+++..................---",
"***..........---+++........................---+++..................---",
"***..........---+++........................---+++..................---",
"***..........---+++........................---+++..................---",
"***..........---+++........................---+++..................---",
"***..........---+++........................---+++..................---",
"***..........---+++........................---+++..................---",
"***..........---+++........................---+++..................---",
"***..........---+++........................---+++..................---",
"***..........---+++........................---+++..................---",
"***..........---+++........................---+++..................---",
"***..........---+++........................---+++..................---",
"***..........---+++........................---+++..................---",
"***..........---+++........................---+++..................---",
"***..........---+++........................---+++..................---",
"****************+++***************************+++*********************",
" **************+++++*************************+++++******************* ",
"  ************+++++++***********************+++++++*****************  ",
"   ++++++++++++++++++++++++++++++++++++++++++++++++++++++++++++++++   ",
"   ++++++++++++++++++++++++++++++++++++++++++++++++++++++++++++++++   ",
"   ++++++++++++++++++++++++++++++++++++++++++++++++++++++++++++++++   ",
"     ------------------------------/+++++++------------------------/  ",
"    -------------------------------//+++++-------------------------// ",
"   --------------------------------///+++--------------------------///",
"***................................---+++***.......................---",
"***................................---+++***.......................---",
"***................................---+++***.......................---",
"***................................---+++***.......................---",
"***................................---+++***.......................---",
"***................................---+++***.......................---",
"***................................---+++***.......................---",
"***................................---+++***.......................---",
"***................................---+++***.......................---",
"***................................---+++***.......................---",
"***................................---+++***.......................---",
"***................................---+++***.......................---",
"***................................---+++***.......................---",
"***................................---+++***.......................---",
"***................................---+++***.......................---",
"**************************************   *****************************",
" ************************************     *************************** ",
"  **********************************       *************************  "};,