/* XPM */
static char * wall_xpm[] = {
"70 70 3 1",
" 	c None",
".	c #8B4513",
"+	c #D2691E",
"......................................................................",
"......................................................................",
"......................................................................",
"......................................................................",
"......................................................................",
"......................................................................",
"......................................................................",
"......................................................................",
"..................++++++++++..............++++++++++..................",
"..................++++++++++..............++++++++++..................",
"..................++++++++++..............++++++++++..................",
"..................++++++++++..............++++++++++..................",
"..................++++++++++..............++++++++++..................",
"..................++++++++++..............++++++++++..................",
"..................++++++++++..............++++++++++..................",
"..................++++++++++..............++++++++++..................",
"..................++++++++++..............++++++++++..................",
"..................++++++++++..............++++++++++..................",
"..................++++++++++..............++++++++++..................",
"..................++++++++++..............++++++++++..................",
"..................++++++++++..............++++++++++..................",
"..................++++++++++..............++++++++++..................",
"..................++++++++++..............++++++++++..................",
"..................++++++++++..............++++++++++..................",
"..................++++++++++..............++++++++++..................",
"..................++++++++++..............++++++++++..................",
"..................++++++++++..............++++++++++..................",
"..................++++++++++..............++++++++++..................",
"..................++++++++++..............++++++++++..................",
"..................++++++++++..............++++++++++..................",
"..................++++++++++..............++++++++++..................",
"..................++++++++++..............++++++++++..................",
"..................++++++++++..............++++++++++..................",
"..................++++++++++..............++++++++++..................",
"..................++++++++++..............++++++++++..................",
"..................++++++++++..............++++++++++..................",
"..................++++++++++..............++++++++++..................",
"..................++++++++++..............++++++++++..................",
"..................++++++++++..............++++++++++..................",
"..................++++++++++..............++++++++++..................",
"..................++++++++++..............++++++++++..................",
"..................++++++++++..............++++++++++..................",
"..................++++++++++..............++++++++++..................",
"..................++++++++++..............++++++++++..................",
"..................++++++++++..............++++++++++..................",
"..................++++++++++..............++++++++++..................",
"..................++++++++++..............++++++++++..................",
"..................++++++++++..............++++++++++..................",
"..................++++++++++..............++++++++++..................",
"......................................................................",
"......................................................................",
"......................................................................",
"......................................................................",
"......................................................................",
"......................................................................",
"......................................................................",
"......................................................................",
"......................................................................",
"......................................................................",
"......................................................................",
"......................................................................",
"......................................................................",
"......................................................................",
"......................................................................",
"......................................................................",
"......................................................................",
"......................................................................",
"......................................................................",
"......................................................................",
"......................................................................",
"......................................................................",
"......................................................................"};
